<svg width="48" height="48" viewBox="0 0 48 48" fill="none" xmlns="http://www.w3.org/2000/svg">
<rect x="1.5" y="1.5" width="45" height="45" rx="4.5" fill="url(#paint0_linear_173_6)" fill-opacity="0.6" stroke="white" stroke-width="3"/>
<circle cx="24" cy="24" r="12.5" stroke="url(#paint1_linear_173_6)" stroke-width="3"/>
<path d="M18 24.3379H30.8926" stroke="url(#paint2_linear_173_6)" stroke-width="2" stroke-linecap="round"/>
<path d="M24.5 18V30.8926" stroke="url(#paint3_linear_173_6)" stroke-width="2" stroke-linecap="round"/>
<path d="M17.504 30.3477L23.1971 29.3879L19.5194 24.9374L17.504 30.3477ZM31.2363 19L25.5431 19.9597L29.2208 24.4103L31.2363 19ZM21.2914 27.8666L28.0859 22.2519L27.4489 21.4811L20.6544 27.0957L21.2914 27.8666Z" fill="url(#paint4_linear_173_6)"/>
<path d="M24.9579 7L25.0172 11.0461" stroke="url(#paint5_linear_173_6)" stroke-width="3" stroke-linecap="round" stroke-linejoin="round"/>
<defs>
<linearGradient id="paint0_linear_173_6" x1="48" y1="17.2308" x2="0.582069" y2="21.3959" gradientUnits="userSpaceOnUse">
<stop stop-color="#FFA31A"/>
<stop offset="1" stop-color="#F56262"/>
</linearGradient>
<linearGradient id="paint1_linear_173_6" x1="24.8235" y1="24" x2="38" y2="33.0589" gradientUnits="userSpaceOnUse">
<stop stop-color="white"/>
<stop offset="1" stop-color="white" stop-opacity="0"/>
</linearGradient>
<linearGradient id="paint2_linear_173_6" x1="18" y1="23.8379" x2="30.8926" y2="23.8379" gradientUnits="userSpaceOnUse">
<stop offset="0.671875" stop-color="white"/>
<stop offset="0.9999" stop-color="white" stop-opacity="0.0677083"/>
<stop offset="1" stop-color="white" stop-opacity="0"/>
</linearGradient>
<linearGradient id="paint3_linear_173_6" x1="25" y1="18" x2="25" y2="30.8926" gradientUnits="userSpaceOnUse">
<stop offset="0.671875" stop-color="white"/>
<stop offset="0.9999" stop-color="white" stop-opacity="0.0677083"/>
<stop offset="1" stop-color="white" stop-opacity="0"/>
</linearGradient>
<linearGradient id="paint4_linear_173_6" x1="22.509" y1="27.5639" x2="18.5471" y2="19.1962" gradientUnits="userSpaceOnUse">
<stop stop-color="white"/>
<stop offset="0.617683" stop-color="white" stop-opacity="0.515625"/>
<stop offset="1" stop-color="white" stop-opacity="0"/>
</linearGradient>
<linearGradient id="paint5_linear_173_6" x1="24.7334" y1="8.25611" x2="26.3915" y2="8.96831" gradientUnits="userSpaceOnUse">
<stop stop-color="white"/>
<stop offset="1" stop-color="white" stop-opacity="0"/>
</linearGradient>
</defs>
</svg>
